<svg xmlns="http://www.w3.org/2000/svg" xmlns:xlink="http://www.w3.org/1999/xlink" version="1.1" x="0px" y="0px" viewBox="0 0 47 58.75" enable-background="new 0 0 47 47" xml:space="preserve"><path d="M42.998,23.506c0-3.614-1.006-6.99-2.727-9.895c0.271-0.337,0.526-0.689,0.744-1.071c1.054-1.848,1.341-3.988,0.809-6.026  c-0.535-2.05-1.834-3.752-3.658-4.792c-3.64-2.074-8.285-0.837-10.55,2.732c-1.328-0.287-2.703-0.446-4.116-0.446  s-2.788,0.16-4.117,0.446c-2.266-3.569-6.909-4.806-10.55-2.732C5.081,3.86,3.802,8.713,5.983,12.541  c0.217,0.38,0.473,0.734,0.746,1.072c-1.72,2.905-2.726,6.28-2.726,9.894c0,7.343,4.083,13.745,10.095,17.069l-2.889,3.211  c-0.554,0.615-0.504,1.563,0.112,2.118c0.287,0.258,0.646,0.385,1.003,0.385c0.411,0,0.819-0.168,1.116-0.497l3.541-3.935  c2.042,0.729,4.231,1.146,6.521,1.146c2.289,0,4.479-0.417,6.521-1.146l3.54,3.935c0.296,0.329,0.705,0.497,1.115,0.497  c0.357,0,0.717-0.127,1.003-0.385c0.616-0.555,0.666-1.503,0.112-2.118l-2.889-3.211C38.914,37.251,42.998,30.849,42.998,23.506z   M36.681,4.329c1.115,0.636,1.911,1.681,2.241,2.943c0.328,1.256,0.151,2.575-0.485,3.724c-2.069-2.466-4.739-4.404-7.779-5.609  C32.179,3.689,34.681,3.188,36.681,4.329z M10.318,4.329c2.001-1.139,4.502-0.639,6.024,1.058c-3.04,1.205-5.71,3.144-7.779,5.61  C7.246,8.617,8.021,5.638,10.318,4.329z M23.5,40.003c-9.097,0-16.498-7.4-16.498-16.497c0-9.097,7.401-16.498,16.498-16.498  s16.498,7.401,16.498,16.498C39.998,32.603,32.597,40.003,23.5,40.003z"/><path d="M23.5,13.128c0.828,0,1.5-0.671,1.5-1.5V9.083c0-0.829-0.672-1.5-1.5-1.5c-0.829,0-1.5,0.671-1.5,1.5v2.545  C22,12.457,22.671,13.128,23.5,13.128z"/><path d="M23.5,33.883c-0.829,0-1.5,0.672-1.5,1.5v2.545c0,0.828,0.671,1.5,1.5,1.5c0.828,0,1.5-0.672,1.5-1.5v-2.545  C25,34.555,24.328,33.883,23.5,33.883z"/><path d="M11.623,22.006H9.078c-0.829,0-1.5,0.671-1.5,1.5c0,0.828,0.671,1.5,1.5,1.5h2.545c0.829,0,1.5-0.672,1.5-1.5  C13.123,22.677,12.451,22.006,11.623,22.006z"/><path d="M37.922,22.006h-2.545c-0.828,0-1.5,0.671-1.5,1.5c0,0.828,0.672,1.5,1.5,1.5h2.545c0.828,0,1.5-0.672,1.5-1.5  C39.422,22.677,38.75,22.006,37.922,22.006z"/><path d="M25,22.926v-7.177c0-0.829-0.672-1.5-1.5-1.5c-0.829,0-1.5,0.671-1.5,1.5v7.757c0,0.161,0.032,0.313,0.079,0.458  c0.006,0.021,0.011,0.041,0.019,0.062c0.063,0.171,0.158,0.325,0.275,0.46c0.008,0.009,0.009,0.02,0.017,0.028l6.061,6.665  c0.296,0.326,0.702,0.491,1.109,0.491c0.36,0,0.722-0.129,1.009-0.391c0.613-0.557,0.658-1.506,0.101-2.118L25,22.926z"/></svg>