<svg id="Layer_1" data-name="Layer 1" xmlns="http://www.w3.org/2000/svg" xmlns:xlink="http://www.w3.org/1999/xlink" viewBox="0 0 100 100"><defs><style>.cls-1{fill:url(#linear-gradient);}.cls-2{fill:url(#linear-gradient-2);}.cls-3{fill:url(#linear-gradient-3);}</style><linearGradient id="linear-gradient" x1="-401.85" y1="294.62" x2="-384.21" y2="294.76" gradientTransform="matrix(5.57, 0, 0, -5.57, 2238.87, 1691.21)" gradientUnits="userSpaceOnUse"><stop offset="0" stop-color="#ffb900"/><stop offset="0.34" stop-color="#f38000"/><stop offset="0.57" stop-color="#f83c72"/><stop offset="0.78" stop-color="#fc1cbe"/><stop offset="0.93" stop-color="#fe08ed"/><stop offset="1" stop-color="#f0f"/></linearGradient><linearGradient id="linear-gradient-2" x1="-396.89" y1="288.84" x2="-378.9" y2="298.8" gradientTransform="matrix(5.57, 0, 0, -5.57, 2238.87, 1691.21)" gradientUnits="userSpaceOnUse"><stop offset="0" stop-color="#ee0a3f"/><stop offset="1" stop-color="#ee0a3f" stop-opacity="0"/></linearGradient><linearGradient id="linear-gradient-3" x1="-518.59" y1="291.38" x2="-509.8" y2="298.45" gradientTransform="translate(-2818.86 1671.67) rotate(180) scale(5.51)" gradientUnits="userSpaceOnUse"><stop offset="0" stop-color="#ed6600"/><stop offset="1" stop-color="#f98200"/></linearGradient></defs><title>logochannel</title><g id="g942"><g id="g71"><path id="path69" class="cls-1" d="M50,90.28a4.05,4.05,0,0,1-2-.53c-5.25-3-44.12-27.4-45.58-28.15a3.54,3.54,0,0,1-2-2.81V24.6a3.73,3.73,0,0,1,1.67-3.17l.29-.16c3.76-2.34,16.34-10,18.33-11.12a3,3,0,0,1,1.51-.43,3.1,3.1,0,0,1,1.43.37S41.25,21.57,44,22.59a13.93,13.93,0,0,0,6,1.27,13.51,13.51,0,0,0,6.76-1.65c2.63-1.39,19.46-12.06,19.64-12.06a2.73,2.73,0,0,1,1.41-.39,3,3,0,0,1,1.51.43C81.59,11.45,97.2,21,97.86,21.43a3.61,3.61,0,0,1,1.75,3.13V58.75a3.46,3.46,0,0,1-2,2.81C96.13,62.37,57.38,86.74,52,89.71a4,4,0,0,1-2,.57"/></g><g id="g79"><path id="path77" class="cls-2" d="M49.82,90.28H50a4,4,0,0,0,2-.53c5.25-3,44.1-27.4,45.57-28.15a3.46,3.46,0,0,0,2-2.81V24.6a3.71,3.71,0,0,0-.38-1.67L49.82,50.06V90.28"/></g><g id="g970"><path id="path968" class="cls-3" d="M49.65,89.79h-.2a4,4,0,0,1-2-.51c-5.19-3-43.63-27.12-45.08-27.85a3.44,3.44,0,0,1-2-2.79V24.82a3.51,3.51,0,0,1,.38-1.65L49.65,50V89.79"/></g></g></svg>