<svg id="Layer_1" data-name="Layer 1" xmlns="http://www.w3.org/2000/svg" viewBox="0 0 100 100"><defs><style>.cls-1{fill:#ea501f;}.cls-2{fill:#fff;}</style></defs><title>logochannel</title><path class="cls-1" d="M12.24,29.19h19a41.26,41.26,0,0,1,5-16.72C39.66,6.55,44.52,2.91,50,2.91s10.32,3.66,13.76,9.56a41.11,41.11,0,0,1,5,16.72h19a4,4,0,0,1,4.1,4.1L88,86.59c-.49,6.68-4.69,10.5-10.78,10.5H22.76C16,97.09,12.39,92.36,12,86.59L8.14,33.32a4,4,0,0,1,4.1-4.13Zm23.81,0H63.93a35.88,35.88,0,0,0-4.31-14.34c-2.53-4.43-6-7.19-9.61-7.19s-7.08,2.76-9.66,7.21A36.31,36.31,0,0,0,36.05,29.19Z"/><path class="cls-2" d="M36.17,78.4a1.93,1.93,0,0,1,2.18-3.19c.56.38,1.14.76,1.77,1.14,4.45,2.71,8.55,4.05,12,4.05a8.22,8.22,0,0,0,7.18-3.52h0c.1-.18.2-.28.23-.35a9.94,9.94,0,0,0,1-2.28,6.84,6.84,0,0,0-.25-4.66,9.82,9.82,0,0,0-4-4.27h0a19.65,19.65,0,0,0-5.11-2.13C45.89,61.73,42,59.65,40,56.87c-2.28-3.06-2.46-6.76,0-11.23,1.62-3,4.94-4.81,9.14-5.14a23.86,23.86,0,0,1,12.39,2.83,1.93,1.93,0,1,1-1.77,3.44,19.87,19.87,0,0,0-10.35-2.42c-2.86.22-5,1.34-6,3.11-1.62,3-1.6,5.28-.28,7.06,1.52,2,4.68,3.64,9.08,4.88A25,25,0,0,1,58.23,62h0a13.4,13.4,0,0,1,5.59,6,10.69,10.69,0,0,1,.46,7.26,12.34,12.34,0,0,1-1.44,3.24c-.15.23-.26.4-.33.53h0a12,12,0,0,1-10.37,5.21c-4.13,0-8.93-1.52-14-4.6C37.51,79.28,36.86,78.88,36.17,78.4Z"/></svg>