<svg xmlns="http://www.w3.org/2000/svg" xmlns:xlink="http://www.w3.org/1999/xlink" viewBox="0 0 100 100"><defs><style>.cls-1{isolation:isolate;}.cls-2{fill:url(#radial-gradient);}.cls-3{fill:#414242;}.cls-10,.cls-11,.cls-12,.cls-13,.cls-14,.cls-16,.cls-17,.cls-18,.cls-21,.cls-22,.cls-24,.cls-25,.cls-3,.cls-4,.cls-5,.cls-6,.cls-7,.cls-8,.cls-9{fill-rule:evenodd;}.cls-4{fill:#60bb55;}.cls-10,.cls-14,.cls-15,.cls-16,.cls-19,.cls-20,.cls-24,.cls-5,.cls-7,.cls-9{mix-blend-mode:multiply;}.cls-5{fill:url(#linear-gradient);}.cls-6{fill:#84c468;}.cls-7{fill:url(#linear-gradient-2);}.cls-8{fill:#4f9d4d;}.cls-9{fill:url(#linear-gradient-3);}.cls-10,.cls-16{opacity:0.7;}.cls-10{fill:url(#linear-gradient-4);}.cls-11{fill:#fff;}.cls-12{fill:url(#linear-gradient-5);}.cls-13{fill:#303030;}.cls-14{fill:url(#linear-gradient-6);}.cls-15,.cls-20{opacity:0.5;}.cls-15{fill:url(#linear-gradient-7);}.cls-16{fill:url(#linear-gradient-8);}.cls-17{fill:url(#linear-gradient-9);}.cls-18{fill:url(#linear-gradient-10);}.cls-19,.cls-20{fill:url(#linear-gradient-11);}.cls-21,.cls-22{opacity:0.8;}.cls-21{fill:url(#linear-gradient-13);}.cls-22{fill:url(#linear-gradient-14);}.cls-23{fill:url(#linear-gradient-15);}.cls-24{opacity:0.9;fill:url(#linear-gradient-16);}.cls-25{fill:url(#linear-gradient-17);}</style><radialGradient id="radial-gradient" cx="-1.46" cy="82.43" r="31.28" gradientTransform="translate(52.2 64.02) scale(1.5 0.28)" gradientUnits="userSpaceOnUse"><stop offset="0.12" stop-color="#515252" stop-opacity="0.7"/><stop offset="0.97" stop-color="#515252" stop-opacity="0"/></radialGradient><linearGradient id="linear-gradient" x1="59.32" y1="34.44" x2="19.1" y2="108.43" gradientUnits="userSpaceOnUse"><stop offset="0" stop-color="#519b4c" stop-opacity="0"/><stop offset="1" stop-color="#519b4c"/></linearGradient><linearGradient id="linear-gradient-2" x1="50.94" y1="79.26" x2="51.11" y2="100.14" xlink:href="#linear-gradient"/><linearGradient id="linear-gradient-3" x1="70.65" y1="50.31" x2="79.31" y2="120.58" xlink:href="#linear-gradient"/><linearGradient id="linear-gradient-4" x1="89.76" y1="31.95" x2="44.14" y2="71.49" gradientUnits="userSpaceOnUse"><stop offset="0" stop-color="#3f843f"/><stop offset="1" stop-color="#519b4c"/></linearGradient><linearGradient id="linear-gradient-5" x1="69.61" y1="64.83" x2="69.61" y2="46.17" gradientUnits="userSpaceOnUse"><stop offset="0" stop-color="#e5e3e3"/><stop offset="1" stop-color="#e5e3e3" stop-opacity="0"/></linearGradient><linearGradient id="linear-gradient-6" x1="66.7" y1="80.91" x2="65.69" y2="99.24" xlink:href="#linear-gradient"/><linearGradient id="linear-gradient-7" x1="52.03" y1="60.25" x2="51.6" y2="81.29" xlink:href="#linear-gradient-4"/><linearGradient id="linear-gradient-8" x1="16.28" y1="49.41" x2="51.83" y2="49.41" xlink:href="#linear-gradient-4"/><linearGradient id="linear-gradient-9" x1="34.06" y1="64.83" x2="34.06" y2="46.17" xlink:href="#linear-gradient-5"/><linearGradient id="linear-gradient-10" x1="51.91" y1="28.6" x2="51.91" y2="41.29" gradientTransform="matrix(1.01, 0, 0, 1.07, -0.36, 29.44)" gradientUnits="userSpaceOnUse"><stop offset="0" stop-color="#f9ec31"/><stop offset="0.21" stop-color="#f9de2e"/><stop offset="0.61" stop-color="#f7bb27"/><stop offset="1" stop-color="#f6921e"/></linearGradient><linearGradient id="linear-gradient-11" x1="61.75" y1="72.4" x2="51.04" y2="63.75" gradientTransform="matrix(1, 0, 0, 1, 0, 0)" xlink:href="#linear-gradient-10"/><linearGradient id="linear-gradient-13" x1="31.98" y1="27.66" x2="31.98" y2="14.58" gradientUnits="userSpaceOnUse"><stop offset="0.2" stop-color="#fff" stop-opacity="0"/><stop offset="0.97" stop-color="#fff"/></linearGradient><linearGradient id="linear-gradient-14" x1="250.17" y1="28" x2="250.17" y2="14.92" gradientTransform="matrix(-1, 0, 0, 1, 321.54, 0)" xlink:href="#linear-gradient-13"/><linearGradient id="linear-gradient-15" x1="52.03" y1="58.95" x2="51.72" y2="74.1" gradientTransform="matrix(1, 0, 0, 1, 0, 0)" xlink:href="#linear-gradient-10"/><linearGradient id="linear-gradient-16" x1="59.44" y1="60.67" x2="46.19" y2="65.28" gradientUnits="userSpaceOnUse"><stop offset="0" stop-color="#f9ec31" stop-opacity="0"/><stop offset="0.09" stop-color="#f9e730" stop-opacity="0.06"/><stop offset="0.27" stop-color="#f8da2d" stop-opacity="0.2"/><stop offset="0.51" stop-color="#f8c529" stop-opacity="0.44"/><stop offset="0.8" stop-color="#f7a823" stop-opacity="0.76"/><stop offset="1" stop-color="#f6921e"/></linearGradient><linearGradient id="linear-gradient-17" x1="54.03" y1="72.23" x2="51.47" y2="53.59" xlink:href="#linear-gradient-13"/></defs><title>logochannel</title><g class="cls-1"><g id="Layer_1" data-name="Layer 1"><ellipse class="cls-2" cx="50" cy="87.19" rx="48.15" ry="9.96"/><path class="cls-3" d="M71.87,20.82a20.15,20.15,0,0,0-40.06-.05l-.22,2.33,6.25.38L38,21.17C38.9,13.9,44.32,9,51.86,9S65,14,65.78,21.3l.39,3.1L72.25,24Z"/><path class="cls-4" d="M15.25,19.88a2.46,2.46,0,0,0-2.44,2.48l.06,36,0,6.44v1.72l0,22.27a2.47,2.47,0,0,0,2.48,2.47l22.26,0h3.89l24.68,0a24.82,24.82,0,0,0,24.7-24.79V64.69l-.07-40.46a4.51,4.51,0,0,0-4.49-4.49c-4.54,0-9.18,0-13.68.23l-5.61.5A44.11,44.11,0,0,0,53,24.26a2.49,2.49,0,0,1-2.27,0,39.1,39.1,0,0,0-14.1-3.93L31,19.92C25.72,19.68,20.35,19.83,15.25,19.88Z"/><path class="cls-5" d="M17.74,19.85a5,5,0,0,0-4.93,5l.06,33.55,0,6.44v1.72l0,22.23a2.51,2.51,0,0,0,2.52,2.51l22.22,0h3.89l24.68,0a24.82,24.82,0,0,0,24.7-24.79V64.69l-.07-40.42a4.55,4.55,0,0,0-4.53-4.53c-4.52,0-9.15,0-13.64.23l-5.61.5A44.05,44.05,0,0,0,53,24.25a2.54,2.54,0,0,1-2.31,0A39.13,39.13,0,0,0,36.6,20.33L31,19.92C26.57,19.72,22.08,19.79,17.74,19.85Z"/><path class="cls-6" d="M19.93,91.29l17.74,0h3.89l24.68,0A24.6,24.6,0,0,0,82.1,85.37a32.82,32.82,0,0,0-62.17,5.92"/><path class="cls-7" d="M19.93,91.29l17.74,0h3.89l24.68,0A24.6,24.6,0,0,0,82.1,85.37a32.82,32.82,0,0,0-62.17,5.92"/><path class="cls-8" d="M52,91.23,66.53,91A24.43,24.43,0,0,0,90.94,66.41V64.69l-.08-42.92a2,2,0,0,0-2-2c-5.31,0-10.82-.08-16.14.23l-5.61.5c-5.49.68-11,2-15.25,4.41Z"/><path class="cls-9" d="M52,91.23,66.53,91A24.43,24.43,0,0,0,90.94,66.41V64.69l-.08-42.92a2,2,0,0,0-2-2c-5.31,0-10.82-.08-16.14.23l-5.61.5c-5.49.68-11,2-15.25,4.41Z"/><path class="cls-10" d="M69.57,31.64A17.78,17.78,0,1,1,51.83,49.45,17.79,17.79,0,0,1,69.57,31.64"/><path class="cls-11" d="M69.58,34A15.44,15.44,0,1,1,54.17,49.44,15.45,15.45,0,0,1,69.58,34"/><path class="cls-12" d="M84.52,45.18a15.53,15.53,0,0,1-29.84.06,15.37,15.37,0,0,0-.6,4.31,15.53,15.53,0,1,0,31.06-.06A15.33,15.33,0,0,0,84.52,45.18Z"/><path class="cls-13" d="M67.84,39.41a10.22,10.22,0,1,1-9.13,11.2,10.05,10.05,0,0,1,.87-5.27,4.92,4.92,0,1,0,7.75-5.86l.51-.07"/><path class="cls-4" d="M52,91.23l14.37,0A24.31,24.31,0,0,0,82.1,85.37,33.45,33.45,0,0,0,51.91,65.59Z"/><path class="cls-14" d="M52,91.23l14.37,0A24.31,24.31,0,0,0,82.1,85.37,33.45,33.45,0,0,0,51.91,65.59Z"/><path class="cls-15" d="M61.3,64.74C59.66,58.65,53.64,58.1,52,58a1.69,1.69,0,0,0-.38,0c-1.57.15-7.63.78-9.1,7,0,.2,0,.77,0,1v0l1.31.84c1,2.9,6.07,8.37,8.12,8.38h.18c1.7,0,6.28-4.94,7.62-8.15.82-.53,1.4-.93,1.51-1A4.83,4.83,0,0,0,61.3,64.74Z"/><path class="cls-16" d="M34,31.64A17.78,17.78,0,1,1,16.28,49.45,17.78,17.78,0,0,1,34,31.64"/><path class="cls-11" d="M34,34A15.44,15.44,0,1,1,18.62,49.44,15.46,15.46,0,0,1,34,34"/><path class="cls-17" d="M49,45.18a15.53,15.53,0,0,1-29.84.06,15.37,15.37,0,0,0-.61,4.31,15.54,15.54,0,1,0,31.07-.06A15.33,15.33,0,0,0,49,45.18Z"/><path class="cls-13" d="M35.71,39.36a10.22,10.22,0,1,1-10.2,10.23,10.07,10.07,0,0,1,1.39-5.16,4.92,4.92,0,1,0,8.29-5.06h.52"/><path class="cls-18" d="M52.14,73.83c2.06,0,8.35-6.94,8-9.47-1.45-5.46-6.71-6.14-8.15-6.23a2.08,2.08,0,0,0-.33,0c-1.38.14-6.69,1-8,6.58-.43,2.1,5.92,9.11,8.29,9.11Z"/><path class="cls-19" d="M58.85,67.68a5.91,5.91,0,0,0,1.28-3.32A7.82,7.82,0,0,0,57,59.82a12.38,12.38,0,0,0-5-1.37,1.45,1.45,0,0,0-.38,0,12.47,12.47,0,0,0-5,1.58,8,8,0,0,0-3,4.69,4.51,4.51,0,0,0,1,2.71c2.36,1.4,6,3.42,7.22,3.42S56.52,69.06,58.85,67.68Z"/><path class="cls-20" d="M58.85,67.68a5.91,5.91,0,0,0,1.28-3.32A7.82,7.82,0,0,0,57,59.82a12.38,12.38,0,0,0-5-1.37,1.45,1.45,0,0,0-.38,0,12.47,12.47,0,0,0-5,1.58,8,8,0,0,0-3,4.69,4.51,4.51,0,0,0,1,2.71c2.36,1.4,6,3.42,7.22,3.42S56.52,69.06,58.85,67.68Z"/><path class="cls-21" d="M50.17,25.72A35.43,35.43,0,0,0,36,21.49l-5.23-.39c-4.9-.22-9.91-.08-14.66,0a2.32,2.32,0,0,0-2.29,2.32C30.23,20.46,50.17,25.72,50.17,25.72Z"/><path class="cls-22" d="M53.18,25.72a35.43,35.43,0,0,1,14.19-4.23l5.23-.39c4.91-.22,9.92-.08,14.66,0a2.32,2.32,0,0,1,2.29,2.32C73.11,20.46,53.18,25.72,53.18,25.72Z"/><path class="cls-23" d="M61.24,64c-1.63-5.82-7.6-6.55-9.23-6.63a1.45,1.45,0,0,0-.38,0c-1.57.15-7.59,1.1-9.06,7a2.92,2.92,0,0,0,0,.6v0s7.47,4.73,9.39,4.73,8.92-4.32,9.35-4.7A3.12,3.12,0,0,0,61.24,64Z"/><path class="cls-24" d="M42.57,64.39a2.92,2.92,0,0,0,0,.6v0s7.26,4.6,9.3,4.73c.57-11.45-.2-12.39-.2-12.39C50.06,57.5,44,58.45,42.57,64.39Z"/><path class="cls-25" d="M53.87,57.59A12.85,12.85,0,0,0,52,57.35a1.45,1.45,0,0,0-.38,0s.77.94.2,12.39C52.8,67.17,53.54,60.9,53.87,57.59Z"/><path class="cls-11" d="M51.4,57.38h0Z"/></g></g></svg>