<svg id="Layer_1" data-name="Layer 1" xmlns="http://www.w3.org/2000/svg" viewBox="0 0 314.81 54.53"><defs><style>.cls-1{fill:gray;}</style></defs><title>zincstudio</title><path d="M88.42,44.43a.58.58,0,0,1-.17-.41V38.83a1.24,1.24,0,0,1,.24-.72l15.5-21a.13.13,0,0,0,0-.19.25.25,0,0,0-.22-.1h-15a.53.53,0,0,1-.41-.17.54.54,0,0,1-.17-.4V11.57a.58.58,0,0,1,.58-.58h22.22a.58.58,0,0,1,.58.58v5.18a1.2,1.2,0,0,1-.24.72l-15.51,21a.21.21,0,0,0,0,.19.2.2,0,0,0,.19.1h15a.56.56,0,0,1,.41.16.58.58,0,0,1,.17.41V44a.58.58,0,0,1-.17.41.56.56,0,0,1-.41.16H88.83A.56.56,0,0,1,88.42,44.43Z"/><path d="M116.88,16.06a3.69,3.69,0,0,1-1.08-2.71,3.63,3.63,0,0,1,3.79-3.8,3.63,3.63,0,0,1,3.8,3.8,3.84,3.84,0,0,1-6.51,2.71Zm-.57,28.37a.54.54,0,0,1-.17-.41V20.45a.53.53,0,0,1,.17-.41.54.54,0,0,1,.4-.17h5.62a.58.58,0,0,1,.58.58V44a.58.58,0,0,1-.17.41.56.56,0,0,1-.41.16h-5.62A.54.54,0,0,1,116.31,44.43Z"/><path d="M147.24,21.89a8.62,8.62,0,0,1,2.35,6.38V44a.55.55,0,0,1-.57.57H143.4a.56.56,0,0,1-.41-.16.57.57,0,0,1-.16-.41V29.67a4.49,4.49,0,0,0-1.08-3.12,4,4,0,0,0-5.72,0A4.49,4.49,0,0,0,135,29.67V44a.55.55,0,0,1-.57.57h-5.62a.55.55,0,0,1-.57-.57V20.5a.56.56,0,0,1,.16-.41.58.58,0,0,1,.41-.17h5.62a.58.58,0,0,1,.41.17.56.56,0,0,1,.16.41v1.68a.19.19,0,0,0,.1.19.09.09,0,0,0,.14-.05,6.73,6.73,0,0,1,5.86-2.78A8.36,8.36,0,0,1,147.24,21.89Z"/><path d="M158.5,43.06a10.49,10.49,0,0,1-4-5.28,17.76,17.76,0,0,1-.82-5.67,17.06,17.06,0,0,1,.82-5.56,10,10,0,0,1,4-5.14,12.83,12.83,0,0,1,13.42.05,9.15,9.15,0,0,1,3.86,4.85,6,6,0,0,1,.39,1.72v.1c0,.29-.16.46-.48.53l-5.52.81H170a.56.56,0,0,1-.57-.48l-.15-.76a3.63,3.63,0,0,0-1.49-2.07,4.61,4.61,0,0,0-2.73-.81,4.27,4.27,0,0,0-2.59.76A4.09,4.09,0,0,0,161,28.23a11.81,11.81,0,0,0-.53,3.93A12.89,12.89,0,0,0,161,36.1a4.25,4.25,0,0,0,1.51,2.25,4.18,4.18,0,0,0,2.62.82,4.4,4.4,0,0,0,2.61-.79,4,4,0,0,0,1.56-2.19.54.54,0,0,0,0-.28.23.23,0,0,0,.05-.15c0-.38.26-.54.67-.48l5.52.87a.51.51,0,0,1,.48.52,6.23,6.23,0,0,1-.29,1.44,8.88,8.88,0,0,1-3.91,5A12.28,12.28,0,0,1,165.15,45,11.49,11.49,0,0,1,158.5,43.06Z"/><path class="cls-1" d="M185.31,43.75a9.81,9.81,0,0,1-4.44-3.5,9.09,9.09,0,0,1-1.56-5.3V33.89a.56.56,0,0,1,.16-.41.57.57,0,0,1,.41-.17h5.47a.58.58,0,0,1,.58.58v.72a3.91,3.91,0,0,0,1.78,3.24,7.86,7.86,0,0,0,4.8,1.32,5.69,5.69,0,0,0,3.79-1.08,3.39,3.39,0,0,0,1.24-2.66,2.7,2.7,0,0,0-.76-2,6.73,6.73,0,0,0-2.09-1.39c-.88-.4-2.28-1-4.2-1.66A40,40,0,0,1,185,28.18,10.94,10.94,0,0,1,181.3,25a7.86,7.86,0,0,1-1.51-4.92,8.67,8.67,0,0,1,1.48-5,9.48,9.48,0,0,1,4.13-3.31,15.09,15.09,0,0,1,6.1-1.15,15.46,15.46,0,0,1,6.5,1.3,10.67,10.67,0,0,1,4.47,3.62,9.27,9.27,0,0,1,1.6,5.4v.72a.56.56,0,0,1-.16.41.58.58,0,0,1-.41.17H198a.58.58,0,0,1-.58-.58v-.38a4.38,4.38,0,0,0-1.65-3.44,6.8,6.8,0,0,0-4.54-1.41,5.74,5.74,0,0,0-3.53,1A3.12,3.12,0,0,0,186.41,20a2.88,2.88,0,0,0,.74,2,6.43,6.43,0,0,0,2.21,1.47q1.47.64,4.54,1.75a56.49,56.49,0,0,1,5.35,2.21,10.74,10.74,0,0,1,3.5,2.85,7.51,7.51,0,0,1,1.56,4.92A8.58,8.58,0,0,1,201,42.36Q197.69,45,192,45A17,17,0,0,1,185.31,43.75Z"/><path class="cls-1" d="M222.62,25.18a.54.54,0,0,1-.4.17h-4.61a.21.21,0,0,0-.24.24V35.76a3.53,3.53,0,0,0,.65,2.35,2.54,2.54,0,0,0,2.08.77h1.59a.58.58,0,0,1,.41.17.56.56,0,0,1,.16.41V44a.59.59,0,0,1-.57.62c-1.35.07-2.31.1-2.88.1a10.77,10.77,0,0,1-5.95-1.32q-2-1.32-2-5V25.59a.21.21,0,0,0-.24-.24h-2.74a.54.54,0,0,1-.4-.17.53.53,0,0,1-.17-.41V20.5a.53.53,0,0,1,.17-.41.54.54,0,0,1,.4-.17h2.74a.21.21,0,0,0,.24-.24V14a.58.58,0,0,1,.58-.58h5.37a.58.58,0,0,1,.58.58v5.71a.21.21,0,0,0,.24.24h4.61a.54.54,0,0,1,.4.17.53.53,0,0,1,.17.41v4.27A.53.53,0,0,1,222.62,25.18Z"/><path class="cls-1" d="M241.44,20.09a.57.57,0,0,1,.41-.17h5.61a.58.58,0,0,1,.58.58V44a.58.58,0,0,1-.17.41.56.56,0,0,1-.41.16h-5.61a.56.56,0,0,1-.41-.16.58.58,0,0,1-.17-.41V42.39c0-.1,0-.16-.09-.17s-.13,0-.2.12q-1.92,2.59-5.95,2.59a8.43,8.43,0,0,1-6-2.21,8.06,8.06,0,0,1-2.35-6.19v-16a.58.58,0,0,1,.58-.58h5.56a.58.58,0,0,1,.58.58V34.85a4.6,4.6,0,0,0,1,3.12,3.57,3.57,0,0,0,2.86,1.2,3.82,3.82,0,0,0,2.69-1,4.31,4.31,0,0,0,1.29-2.57V20.5A.57.57,0,0,1,241.44,20.09Z"/><path class="cls-1" d="M268.51,11.16a.57.57,0,0,1,.41-.17h5.62a.54.54,0,0,1,.4.17.53.53,0,0,1,.17.41V44a.54.54,0,0,1-.17.41.54.54,0,0,1-.4.16h-5.62a.56.56,0,0,1-.41-.16.58.58,0,0,1-.17-.41V42.43c0-.09,0-.15-.09-.16a.17.17,0,0,0-.19.07A6.58,6.58,0,0,1,262.54,45a9.26,9.26,0,0,1-5.79-1.87A10.37,10.37,0,0,1,253.27,38a18.83,18.83,0,0,1-.81-5.81,18.43,18.43,0,0,1,.86-5.95,10.36,10.36,0,0,1,3.48-4.87,9.44,9.44,0,0,1,5.88-1.8,6.51,6.51,0,0,1,5.38,2.4c.06.09.12.13.19.09a.19.19,0,0,0,.09-.19V11.57A.57.57,0,0,1,268.51,11.16Zm-.21,21.1a10.11,10.11,0,0,0-1.06-5A3.53,3.53,0,0,0,264,25.35a3.73,3.73,0,0,0-3.4,1.87,9.35,9.35,0,0,0-1.2,5.09,10.28,10.28,0,0,0,1,4.8A3.88,3.88,0,0,0,264,39.17a3.72,3.72,0,0,0,3.36-2.06A10.28,10.28,0,0,0,268.3,32.26Z"/><path class="cls-1" d="M281.14,16.06a3.69,3.69,0,0,1-1.08-2.71,3.79,3.79,0,1,1,7.58,0,3.83,3.83,0,0,1-6.5,2.71Zm-.58,28.37a.58.58,0,0,1-.17-.41V20.45a.58.58,0,0,1,.58-.58h5.61a.58.58,0,0,1,.58.58V44a.58.58,0,0,1-.17.41.56.56,0,0,1-.41.16H281A.56.56,0,0,1,280.56,44.43Z"/><path class="cls-1" d="M296.42,42.87a10.53,10.53,0,0,1-3.93-5.76,17.07,17.07,0,0,1-.67-4.9,17.78,17.78,0,0,1,.67-5.09,10.3,10.3,0,0,1,4-5.57,11.78,11.78,0,0,1,6.91-2,11.2,11.2,0,0,1,6.72,2A10.65,10.65,0,0,1,314,27.07a16.5,16.5,0,0,1,.77,5,17.17,17.17,0,0,1-.67,4.85,10.71,10.71,0,0,1-3.92,5.88A11.12,11.12,0,0,1,303.34,45,11.44,11.44,0,0,1,296.42,42.87Zm9.6-4.66a5.31,5.31,0,0,0,1.59-2.64,14.1,14.1,0,0,0,.38-3.36,13.32,13.32,0,0,0-.38-3.41A5.41,5.41,0,0,0,306,26.26a4.09,4.09,0,0,0-2.69-.91,4,4,0,0,0-2.71.91A5,5,0,0,0,299,28.8a11.31,11.31,0,0,0-.39,3.41,12.78,12.78,0,0,0,.34,3.36,5.2,5.2,0,0,0,1.61,2.64,4.11,4.11,0,0,0,2.76,1A3.93,3.93,0,0,0,306,38.21Z"/><path d="M69.14,5.3V49.23H5.3V5.3H69.14M74.44,0H0V54.53H74.44V0Z"/><path d="M18.62,42.42a3,3,0,0,1-2.08-5.24l10.53-9.91L16.54,17.35a3,3,0,1,1,4.16-4.41L35.92,27.27,20.7,41.59A3.06,3.06,0,0,1,18.62,42.42Z"/><path d="M55.82,41.32H35.7a3,3,0,0,1,0-6.06H55.82a3,3,0,0,1,0,6.06Z"/></svg>