<svg version="1.1" id="Layer_1" xmlns="http://www.w3.org/2000/svg" xmlns:xlink="http://www.w3.org/1999/xlink" x="0px" y="0px"
	 viewBox="0 0 314.8 54.5" style="enable-background:new 0 0 314.8 54.5;" xml:space="preserve">
<style type="text/css">
	.st0{fill:#FFFFFF;}
	.st1{fill:#67e8f9;}
</style>
<title>zincstudio</title>
<path class="st0" d="M88.4,44.4c-0.1-0.1-0.2-0.3-0.2-0.4v-5.2c0-0.3,0.1-0.5,0.2-0.7l15.5-21c0.1,0,0.1-0.1,0-0.2c0,0,0,0,0,0
	c-0.1-0.1-0.1-0.1-0.2-0.1h-15c-0.2,0-0.3-0.1-0.4-0.2c-0.1-0.1-0.2-0.2-0.2-0.4v-4.7c0-0.3,0.3-0.6,0.6-0.6l0,0H111
	c0.3,0,0.6,0.3,0.6,0.6c0,0,0,0,0,0v5.2c0,0.3-0.1,0.5-0.2,0.7l-15.5,21c0,0.1,0,0.1,0,0.2c0,0.1,0.1,0.1,0.2,0.1h15
	c0.2,0,0.3,0.1,0.4,0.2c0.1,0.1,0.2,0.3,0.2,0.4V44c0,0.2-0.1,0.3-0.2,0.4c-0.1,0.1-0.3,0.2-0.4,0.2H88.8
	C88.7,44.6,88.5,44.5,88.4,44.4z"/>
<path class="st0" d="M116.9,16.1c-0.7-0.7-1.1-1.7-1.1-2.7c-0.1-2,1.4-3.7,3.5-3.8c0.1,0,0.2,0,0.3,0c2-0.1,3.7,1.4,3.8,3.5
	c0,0.1,0,0.2,0,0.3c0,2.1-1.8,3.8-3.9,3.8C118.5,17.1,117.6,16.7,116.9,16.1z M116.3,44.4c-0.1-0.1-0.2-0.3-0.2-0.4V20.5
	c0-0.2,0.1-0.3,0.2-0.4c0.1-0.1,0.2-0.2,0.4-0.2h5.6c0.3,0,0.6,0.3,0.6,0.6v0V44c0,0.2-0.1,0.3-0.2,0.4c-0.1,0.1-0.3,0.2-0.4,0.2
	h-5.6C116.6,44.6,116.4,44.5,116.3,44.4z"/>
<path class="st0" d="M147.2,21.9c1.6,1.7,2.5,4,2.4,6.4V44c0,0.3-0.2,0.6-0.5,0.6c0,0,0,0,0,0h-5.6c-0.2,0-0.3-0.1-0.4-0.2
	c-0.1-0.1-0.2-0.3-0.2-0.4V29.7c0-1.1-0.3-2.3-1.1-3.1c-1.5-1.6-4.1-1.6-5.7-0.1c0,0,0,0-0.1,0.1c-0.7,0.9-1.1,2-1,3.1V44
	c0,0.3-0.2,0.6-0.5,0.6c0,0,0,0,0,0h-5.6c-0.3,0-0.6-0.2-0.6-0.5c0,0,0,0,0,0V20.5c0-0.2,0.1-0.3,0.2-0.4c0.1-0.1,0.3-0.2,0.4-0.2
	h5.6c0.2,0,0.3,0.1,0.4,0.2c0.1,0.1,0.2,0.3,0.2,0.4v1.7c0,0.1,0,0.2,0.1,0.2c0,0,0.1,0,0.1,0c0,0,0,0,0,0c1.3-1.9,3.6-2.9,5.9-2.8
	C143.4,19.5,145.6,20.3,147.2,21.9z"/>
<path class="st0" d="M158.5,43.1c-1.9-1.3-3.3-3.1-4-5.3c-0.6-1.8-0.9-3.7-0.8-5.7c0-1.9,0.2-3.8,0.8-5.6c0.7-2.1,2.1-3.9,4-5.1
	c4.1-2.5,9.3-2.5,13.4,0c1.8,1.1,3.2,2.8,3.9,4.9c0.2,0.6,0.3,1.1,0.4,1.7v0.1c0,0.3-0.2,0.5-0.5,0.5l-5.5,0.8H170
	c-0.3,0-0.5-0.2-0.6-0.5l-0.1-0.8c-0.2-0.8-0.8-1.6-1.5-2.1c-0.8-0.6-1.8-0.8-2.7-0.8c-0.9,0-1.8,0.2-2.6,0.8
	c-0.7,0.5-1.2,1.3-1.5,2.1c-0.4,1.3-0.6,2.6-0.5,3.9c0,1.3,0.2,2.7,0.5,3.9c0.2,0.9,0.8,1.7,1.5,2.2c0.8,0.6,1.7,0.8,2.6,0.8
	c0.9,0,1.8-0.3,2.6-0.8c0.8-0.5,1.3-1.3,1.6-2.2c0-0.1,0-0.2,0-0.3c0,0,0.1-0.1,0.1-0.2c0-0.4,0.3-0.5,0.7-0.5l5.5,0.9
	c0.3,0,0.5,0.2,0.5,0.5c0,0.5-0.1,1-0.3,1.4c-0.6,2.1-2,3.9-3.9,5c-2,1.3-4.3,1.9-6.7,1.9C162.8,45.1,160.5,44.4,158.5,43.1z"/>
<path class="st1" d="M185.3,43.8c-1.8-0.7-3.3-1.9-4.4-3.5c-1.1-1.6-1.6-3.4-1.6-5.3v-1.1c0-0.2,0.1-0.3,0.2-0.4
	c0.1-0.1,0.3-0.2,0.4-0.2h5.5c0.3,0,0.6,0.3,0.6,0.6v0v0.7c0,1.3,0.7,2.5,1.8,3.2c1.4,0.9,3.1,1.4,4.8,1.3c1.4,0.1,2.7-0.3,3.8-1.1
	c0.8-0.7,1.3-1.6,1.2-2.7c0-0.7-0.2-1.5-0.8-2c-0.6-0.6-1.3-1.1-2.1-1.4c-0.9-0.4-2.3-1-4.2-1.7c-1.9-0.6-3.7-1.3-5.5-2.2
	c-1.5-0.8-2.7-1.9-3.7-3.2c-1-1.4-1.6-3.2-1.5-4.9c0-1.8,0.5-3.5,1.5-5c1-1.5,2.5-2.6,4.1-3.3c1.9-0.8,4-1.2,6.1-1.1
	c2.2,0,4.5,0.4,6.5,1.3c1.8,0.8,3.3,2,4.5,3.6c1.1,1.6,1.6,3.5,1.6,5.4v0.7c0,0.2-0.1,0.3-0.2,0.4c-0.1,0.1-0.3,0.2-0.4,0.2H198
	c-0.3,0-0.6-0.3-0.6-0.6v0v-0.4c0-1.3-0.6-2.6-1.6-3.4c-1.3-1-2.9-1.5-4.5-1.4c-1.3-0.1-2.5,0.3-3.5,1c-0.8,0.6-1.3,1.6-1.3,2.6
	c0,0.7,0.2,1.5,0.7,2c0.6,0.6,1.4,1.1,2.2,1.5c1,0.4,2.5,1,4.5,1.8c1.8,0.6,3.6,1.4,5.4,2.2c1.4,0.7,2.5,1.7,3.5,2.9
	c1.1,1.4,1.6,3.1,1.6,4.9c0.1,2.8-1.1,5.5-3.3,7.2c-2.2,1.8-5.2,2.6-9,2.6C189.7,45,187.4,44.6,185.3,43.8z"/>
<path class="st1" d="M222.6,25.2c-0.1,0.1-0.2,0.2-0.4,0.2h-4.6c-0.1,0-0.2,0.1-0.2,0.2c0,0,0,0,0,0.1v10.2
	c-0.1,0.8,0.2,1.7,0.6,2.3c0.5,0.6,1.3,0.8,2.1,0.8h1.6c0.2,0,0.3,0.1,0.4,0.2c0.1,0.1,0.2,0.3,0.2,0.4V44c0,0.3-0.2,0.6-0.6,0.6
	c0,0,0,0,0,0c-1.4,0.1-2.3,0.1-2.9,0.1c-2.1,0.1-4.1-0.3-5.9-1.3c-1.3-0.9-2-2.5-2-5V25.6c0-0.1-0.1-0.2-0.2-0.2c0,0,0,0-0.1,0h-2.7
	c-0.2,0-0.3-0.1-0.4-0.2c-0.1-0.1-0.2-0.3-0.2-0.4v-4.3c0-0.2,0.1-0.3,0.2-0.4c0.1-0.1,0.2-0.2,0.4-0.2h2.7c0.1,0,0.2-0.1,0.2-0.2
	c0,0,0,0,0-0.1V14c0-0.3,0.3-0.6,0.6-0.6l0,0h5.4c0.3,0,0.6,0.3,0.6,0.6c0,0,0,0,0,0v5.7c0,0.1,0.1,0.2,0.2,0.2c0,0,0,0,0.1,0h4.6
	c0.2,0,0.3,0.1,0.4,0.2c0.1,0.1,0.2,0.3,0.2,0.4v4.3C222.8,24.9,222.7,25.1,222.6,25.2z"/>
<path class="st1" d="M241.4,20.1c0.1-0.1,0.3-0.2,0.4-0.2h5.6c0.3,0,0.6,0.3,0.6,0.6v0V44c0,0.2-0.1,0.3-0.2,0.4
	c-0.1,0.1-0.3,0.2-0.4,0.2h-5.6c-0.2,0-0.3-0.1-0.4-0.2c-0.1-0.1-0.2-0.3-0.2-0.4v-1.6c0-0.1,0-0.2-0.1-0.2s-0.1,0-0.2,0.1
	c-1.3,1.7-3.3,2.6-5.9,2.6c-2.2,0.1-4.4-0.7-6-2.2c-1.6-1.6-2.5-3.9-2.4-6.2v-16c0-0.3,0.3-0.6,0.6-0.6l0,0h5.6
	c0.3,0,0.6,0.3,0.6,0.6v0v14.3c-0.1,1.1,0.3,2.2,1,3.1c0.7,0.8,1.8,1.3,2.9,1.2c1,0,2-0.3,2.7-1c0.7-0.7,1.2-1.6,1.3-2.6V20.5
	C241.2,20.3,241.3,20.2,241.4,20.1z"/>
<path class="st1" d="M268.5,11.2c0.1-0.1,0.3-0.2,0.4-0.2h5.6c0.2,0,0.3,0.1,0.4,0.2c0.1,0.1,0.2,0.3,0.2,0.4V44
	c0,0.2-0.1,0.3-0.2,0.4c-0.1,0.1-0.3,0.2-0.4,0.2h-5.6c-0.2,0-0.3-0.1-0.4-0.2c-0.1-0.1-0.2-0.3-0.2-0.4v-1.6c0-0.1,0-0.2-0.1-0.2
	c-0.1,0-0.1,0-0.2,0.1c-1.3,1.7-3.4,2.7-5.5,2.7c-2.1,0-4.1-0.6-5.8-1.9c-1.7-1.3-2.9-3.1-3.5-5.1c-0.6-1.9-0.8-3.8-0.8-5.8
	c0-2,0.2-4,0.9-6c0.7-1.9,1.9-3.6,3.5-4.9c1.7-1.2,3.8-1.9,5.9-1.8c2.1-0.1,4.1,0.8,5.4,2.4c0.1,0.1,0.1,0.1,0.2,0.1
	c0.1,0,0.1-0.1,0.1-0.2V11.6C268.3,11.4,268.4,11.3,268.5,11.2z M268.3,32.3c0.1-1.7-0.3-3.5-1.1-5c-0.6-1.2-1.9-1.9-3.2-1.9
	c-1.4-0.1-2.7,0.7-3.4,1.9c-0.9,1.5-1.3,3.3-1.2,5.1c-0.1,1.7,0.3,3.3,1,4.8c0.7,1.3,2.1,2.1,3.6,2.1c1.4,0,2.7-0.8,3.4-2.1
	C268.1,35.6,268.4,33.9,268.3,32.3L268.3,32.3z"/>
<path class="st1" d="M281.1,16.1c-0.7-0.7-1.1-1.7-1.1-2.7c0-2.1,1.7-3.8,3.8-3.8c2.1,0,3.8,1.7,3.8,3.8c0,0,0,0,0,0
	c0,2.1-1.8,3.8-3.9,3.8C282.8,17.1,281.8,16.7,281.1,16.1z M280.6,44.4c-0.1-0.1-0.2-0.3-0.2-0.4V20.5c0-0.3,0.3-0.6,0.6-0.6h5.6
	c0.3,0,0.6,0.3,0.6,0.6V44c0,0.2-0.1,0.3-0.2,0.4c-0.1,0.1-0.3,0.2-0.4,0.2H281C280.8,44.6,280.7,44.5,280.6,44.4L280.6,44.4z"/>
<path class="st1" d="M296.4,42.9c-1.9-1.4-3.3-3.4-3.9-5.8c-0.5-1.6-0.7-3.2-0.7-4.9c0-1.7,0.2-3.4,0.7-5.1c0.7-2.3,2.1-4.2,4-5.6
	c2-1.4,4.5-2.1,6.9-2c2.4-0.1,4.8,0.6,6.7,2c1.9,1.4,3.2,3.3,3.9,5.5c0.5,1.6,0.8,3.3,0.8,5c0,1.6-0.2,3.3-0.7,4.8
	c-0.6,2.3-2,4.4-3.9,5.9c-2,1.5-4.4,2.2-6.8,2.2C300.9,45.1,298.4,44.3,296.4,42.9z M306,38.2c0.8-0.7,1.3-1.6,1.6-2.6
	c0.3-1.1,0.4-2.2,0.4-3.4c0-1.1-0.1-2.3-0.4-3.4c-0.3-1-0.8-1.9-1.6-2.5c-0.8-0.6-1.7-0.9-2.7-0.9c-1,0-1.9,0.3-2.7,0.9
	c-0.8,0.7-1.3,1.5-1.6,2.5c-0.3,1.1-0.4,2.3-0.4,3.4c0,1.1,0.1,2.3,0.3,3.4c0.3,1,0.8,1.9,1.6,2.6c0.8,0.7,1.7,1,2.8,1
	C304.3,39.2,305.3,38.9,306,38.2L306,38.2z"/>
<path class="st0" d="M69.1,5.3v43.9H5.3V5.3H69.1 M74.4,0H0v54.5h74.4V0z"/>
<path class="st0" d="M18.6,42.4c-1.7,0-3-1.3-3.1-2.9c0-0.9,0.3-1.7,1-2.3l10.5-9.9l-10.5-9.9c-1.2-1.1-1.3-3.1-0.1-4.3
	s3.1-1.3,4.3-0.1l15.2,14.3L20.7,41.6C20.1,42.1,19.4,42.4,18.6,42.4z"/>
<path class="st0" d="M55.8,41.3H35.7c-1.7,0-3-1.4-3-3c0-1.7,1.4-3,3-3h20.1c1.7,0,3,1.4,3,3C58.8,40,57.5,41.3,55.8,41.3z"/>
</svg>